<svg xmlns="http://www.w3.org/2000/svg" width="110" height="131" viewBox="0 0 110 131"><g><g><g><path fill="#ffcc48" d="M55 77V22h55v55z"/></g><g><g><g><g><g><path d="M39.664 0c-7.342.006-13.292 5.957-13.298 13.298.01 7.339 5.959 13.287 13.298 13.294 7.341-.007 13.29-5.957 13.298-13.298C52.954 5.954 47.004.006 39.664 0z"/></g></g></g><g><g><g><path d="M59.59 27.74c-7.345 0-13.299 5.953-13.3 13.297 0 7.345 5.954 13.299 13.297 13.299 7.344 0 13.299-5.952 13.299-13.297v-.003c-.01-7.34-5.957-13.287-13.297-13.296z"/></g></g></g><g><path d="M69.298 103.332a5.153 5.153 0 1 1-.002-7.288 5.215 5.215 0 0 1 1.51 3.646 5.155 5.155 0 0 1-1.508 3.642zm-4.897-16.65c-7.042.06-12.703 5.816-12.644 12.858.06 6.958 5.685 12.584 12.644 12.642h18.51l4.108.001h1.234a9.816 9.816 0 0 0 5.758-1.861l.004-28.515a4.88 4.88 0 0 1-4.875 4.875z"/></g></g><g><path fill="none" stroke="#000" stroke-linecap="round" stroke-linejoin="round" stroke-miterlimit="20" stroke-width="2.89" d="M60.544 64.215v0H8.23A6.228 6.228 0 0 1 2 57.987v0A6.229 6.229 0 0 1 8.23 51.76h13.72v0"/></g><g><path fill="none" stroke="#000" stroke-linecap="round" stroke-linejoin="round" stroke-miterlimit="20" stroke-width="3" d="M78.418 64.165a6.438 6.438 0 0 1 6.437 6.438v51.68a6.438 6.438 0 0 1-6.437 6.438H8.438A6.438 6.438 0 0 1 2 122.283V57.937v0"/></g><g><path fill="none" stroke="#000" stroke-linecap="round" stroke-linejoin="round" stroke-miterlimit="20" stroke-width="3" d="M78.418 64.165v0H8.228A6.228 6.228 0 0 1 2 57.937v0a6.228 6.228 0 0 1 6.229-6.228h13.72v0"/></g><g><path fill="none" stroke="#000" stroke-linecap="round" stroke-linejoin="round" stroke-miterlimit="20" stroke-width="3" d="M75.867 51.709v0h12.41a6.67 6.67 0 0 1 6.67 6.67v63.672a6.67 6.67 0 0 1-6.67 6.67H69.925v0"/></g><g><path fill="none" stroke="#000" stroke-linecap="round" stroke-linejoin="round" stroke-miterlimit="20" stroke-width="3" d="M45.077 56.309v7.907"/></g><g><path fill="none" stroke="#000" stroke-linecap="round" stroke-linejoin="round" stroke-miterlimit="20" stroke-width="3" d="M33.123 47.806v7.907"/></g><g><path fill="none" stroke="#000" stroke-linecap="round" stroke-linejoin="round" stroke-miterlimit="20" stroke-width="3" d="M13.82 81.52v16.565"/></g><g><path fill="none" stroke="#000" stroke-linecap="round" stroke-linejoin="round" stroke-miterlimit="20" stroke-width="3" d="M71.54 14.822v7.517"/></g><g><path fill="none" stroke="#000" stroke-linecap="round" stroke-linejoin="round" stroke-miterlimit="20" stroke-width="3" d="M67.627 18.58h7.661"/></g><g><g><g><path d="M14.738 103.706a1.3 1.3 0 1 0-1.836 1.839 1.3 1.3 0 0 0 1.836-1.839z"/></g></g></g></g></g></g></svg>