<svg xmlns="http://www.w3.org/2000/svg" width="70" height="19" viewBox="0 0 70 19"><g><g><g><g><path fill="#fff" d="M64.982 3.021a1.36 1.36 0 0 1 0-2.72 1.36 1.36 0 0 1 0 2.72z"/></g><g><path fill="#fff" d="M61.277 3.021a1.361 1.361 0 0 1 0-2.72c.75 0 1.36.61 1.36 1.36.047.75-.61 1.36-1.36 1.36z"/></g><g><path fill="#fff" d="M64.982 6.679a1.36 1.36 0 0 1 0-2.72 1.36 1.36 0 0 1 0 2.72z"/></g><g><path fill="#fff" d="M68.64 6.679a1.361 1.361 0 0 1 0-2.72 1.361 1.361 0 0 1 0 2.72z"/></g><g><path fill="#fff" d="M68.64 10.384a1.361 1.361 0 0 1 0-2.72c.75 0 1.36.61 1.36 1.36 0 .703-.61 1.36-1.36 1.36z"/></g><g><path fill="#fff" d="M68.64 3.021a1.361 1.361 0 0 1 0-2.72 1.361 1.361 0 0 1 0 2.72z"/></g></g><g><g><path fill="#fff" d="M5.33 8.18L6.737 13.9H3.829L5.236 8.18zM2.33 18.544c.14 0 .234-.047.281-.094.094-.047.094-.188.14-.328l.564-2.158h3.845l.563 2.158c.047.14.094.281.14.328.047.047.141.094.282.094h1.97c.234 0 .328-.14.234-.422L7.206 6.21c-.094-.281-.281-.422-.61-.422H3.97c-.328 0-.516.14-.61.422L.219 18.122c-.093.281 0 .422.235.422z"/></g><g><path fill="#fff" d="M23.76 18.544h-1.688c-.281 0-.422-.14-.422-.422V8.836c0-.281.14-.422.422-.422h1.688c.282 0 .422.14.422.422v.657h.094c.14-.375.422-.61.75-.797.376-.188.75-.282 1.173-.282h.703c.282 0 .376.14.376.422v1.36c0 .14-.047.282-.094.329-.047.046-.14.093-.329.046h-1.36c-.89 0-1.36.516-1.36 1.548v5.956c0 .328-.14.469-.375.469z"/></g><g><path fill="#fff" d="M30.935 12.682v-.938c0-.422.047-.704.235-.891.188-.14.469-.235.89-.235h.845c.422 0 .704.047.891.235.14.187.235.469.235.89v.939c0 .14-.094.234-.235.234h-2.673c-.14 0-.234-.094-.188-.234zm5.112 5.862c.14 0 .282-.047.328-.047.047-.094.094-.188.094-.328v-1.313c0-.282-.14-.423-.422-.423h-3.986c-.422 0-.703-.093-.891-.28-.188-.189-.281-.47-.281-.892v-.422c0-.14.093-.235.234-.235h4.971c.281 0 .422-.14.422-.422V11.65c0-1.032-.281-1.829-.844-2.392-.61-.562-1.407-.844-2.439-.844h-1.547c-1.079 0-1.876.282-2.439.844-.563.563-.844 1.36-.844 2.392v3.658c0 1.032.235 1.829.844 2.392.61.562 1.407.844 2.439.844z"/></g><g><path fill="#fff" d="M43.832 14.839c0 1.032-.47 1.548-1.36 1.5h-.75c-.423 0-.704-.093-.891-.28-.141-.188-.235-.47-.235-.892v-3.423c0-.422.047-.704.235-.891.187-.188.468-.282.89-.282h1.876c.141 0 .235.094.235.235v4.033zm-2.017 3.705c.376 0 .798-.094 1.173-.282.328-.187.61-.422.75-.797h.094v.657c0 .281.14.422.422.422h1.688c.282 0 .422-.14.422-.422V8.836c0-.281-.14-.422-.422-.422h-4.596c-1.078 0-1.875.282-2.438.844-.563.563-.844 1.36-.844 2.392v3.658c0 1.032.281 1.829.844 2.392.61.562 1.407.844 2.438.844h.47z"/></g><g><path fill="#fff" d="M50.116 18.544h-1.688c-.282 0-.422-.14-.422-.422V8.836c0-.281.14-.422.422-.422h1.688c.281 0 .422.14.422.422v.657h.094c.14-.328.422-.563.797-.75.375-.188.797-.282 1.313-.282h.563c1.172 0 1.97.422 2.485 1.266.47-.844 1.22-1.266 2.298-1.266h.563c1.032 0 1.782.281 2.298.844s.797 1.36.797 2.392v6.472c0 .281-.14.422-.422.422h-1.688c-.281 0-.422-.141-.422-.422V11.79c0-.422-.094-.704-.235-.891-.187-.188-.469-.282-.89-.282h-.517c-.89 0-1.36.516-1.36 1.548v6.003c0 .281-.14.422-.422.422h-1.688c-.281 0-.422-.141-.422-.422V11.79c0-.422-.094-.704-.281-.891-.188-.188-.47-.282-.891-.282h-.61c-.891 0-1.36.516-1.36 1.501v6.003c0 .281-.14.422-.422.422z"/></g><g><path fill="#fff" d="M17.476 14.23c0 .937-.797 1.734-1.735 1.781h-1.829v-7.69h1.83c.937.046 1.734.797 1.734 1.781zm-1.641-8.442h-3.986c-.282 0-.422.14-.422.422v11.912c0 .281.14.422.422.422h3.986c2.345-.047 4.174-1.97 4.174-4.315v-4.127c0-2.344-1.876-4.267-4.174-4.314z"/></g></g></g></g></svg>