<svg xmlns="http://www.w3.org/2000/svg" width="290" height="145" viewBox="0 0 290 145"><g><g><g><path fill="#020203" d="M0 144.99v-8.529h144.995v8.529z"/></g><g><path fill="#020203" d="M0 127.933v-8.528h144.995v8.528z"/></g><g><path fill="#020203" d="M0 110.872v-8.529h144.995v8.529z"/></g><g><path fill="#020203" d="M0 93.815v-8.528h144.995v8.528z"/></g><g><path fill="#020203" d="M0 76.759v-8.528h144.995v8.528z"/></g><g><path fill="#020203" d="M0 59.702V51.17h144.995v8.533z"/></g><g><path fill="#020203" d="M0 42.641v-8.528h144.995v8.528z"/></g><g><path fill="#020203" d="M0 25.585v-8.529h144.995v8.529z"/></g><g><path fill="#020203" d="M0 8.528V0h144.995v8.528z"/></g><g><path fill="#020203" d="M145.01 144.99V0h8.529v144.99z"/></g><g><path fill="#020203" d="M162.067 144.99V0h8.528v144.99z"/></g><g><path fill="#020203" d="M179.123 144.99V0h8.528v144.99z"/></g><g><path fill="#020203" d="M196.185 144.99V0h8.528v144.99z"/></g><g><path fill="#020203" d="M213.241 144.99V0h8.528v144.99z"/></g><g><path fill="#020203" d="M230.297 144.99V0h8.528v144.99z"/></g><g><path fill="#020203" d="M247.359 144.99V0h8.523v144.99z"/></g><g><path fill="#020203" d="M264.415 144.99V0h8.528v144.99z"/></g><g><path fill="#020203" d="M281.472 144.99V0H290v144.99z"/></g></g></g></svg>